<?xml version="1.0" encoding="UTF-8" standalone="yes"?><svg xmlns="http://www.w3.org/2000/svg" xmlns:xlink="http://www.w3.org/1999/xlink" height="685pt" style="width:840px;height:685px;" version="1.1" viewBox="0 0 840 685" width="840pt"><defs><filter height="300%" id="f1" width="300%" x="-1" y="-1"><feGaussianBlur result="blurOut" stdDeviation="2.0"/><feColorMatrix in="blurOut" result="blurOut2" type="matrix" values="0 0 0 0 0 0 0 0 0 0 0 0 0 0 0 0 0 0 .4 0"/><feOffset dx="4.0" dy="4.0" in="blurOut2" result="blurOut3"/><feBlend in="SourceGraphic" in2="blurOut3" mode="normal"/></filter></defs><g><rect fill="#FEFECE" filter="url(#f1)" height="310.8828" style="stroke: #A80036; stroke-width: 1.5;" width="148" x="484.5" y="366"/><ellipse cx="533.25" cy="382" fill="#ADD1B2" rx="11" ry="11" style="stroke: #A80036; stroke-width: 1.0;"/><path d="M536.0156,377.875 Q536.1719,377.6563 536.3594,377.5469 Q536.5469,377.4375 536.7656,377.4375 Q537.1406,377.4375 537.375,377.6953 Q537.6094,377.9531 537.6094,378.5625 L537.6094,380.0156 Q537.6094,380.625 537.375,380.8906 Q537.1406,381.1563 536.7656,381.1563 Q536.4219,381.1563 536.2188,380.9531 Q536.0156,380.7656 535.9063,380.25 Q535.8594,379.8906 535.6719,379.7031 Q535.3438,379.3281 534.7344,379.1094 Q534.125,378.8906 533.5,378.8906 Q532.7344,378.8906 532.1016,379.2188 Q531.4688,379.5469 530.9766,380.2969 Q530.4844,381.0469 530.4844,382.0781 L530.4844,383.1719 Q530.4844,384.4063 531.375,385.2266 Q532.2656,386.0469 533.8594,386.0469 Q534.7969,386.0469 535.4531,385.7969 Q535.8438,385.6406 536.2656,385.2031 Q536.5313,384.9375 536.6797,384.8594 Q536.8281,384.7813 537.0313,384.7813 Q537.3594,384.7813 537.6172,385.0391 Q537.875,385.2969 537.875,385.6406 Q537.875,385.9844 537.5313,386.3906 Q537.0313,386.9688 536.2344,387.2969 Q535.1563,387.75 533.8594,387.75 Q532.3438,387.75 531.1406,387.125 Q530.1563,386.625 529.4688,385.5547 Q528.7813,384.4844 528.7813,383.2031 L528.7813,382.0469 Q528.7813,380.7188 529.3984,379.5703 Q530.0156,378.4219 531.1094,377.8047 Q532.2031,377.1875 533.4375,377.1875 Q534.1719,377.1875 534.8203,377.3516 Q535.4688,377.5156 536.0156,377.875 Z "/><text fill="#000000" font-family="sans-serif" font-size="12" lengthAdjust="spacingAndGlyphs" textLength="42" x="553.75" y="386.9102">Product</text><line style="stroke: #A80036; stroke-width: 1.5;" x1="485.5" x2="631.5" y1="398" y2="398"/><rect fill="none" height="6" style="stroke: #C82930; stroke-width: 1.0;" width="6" x="492.5" y="407.418"/><text fill="#000000" font-family="sans-serif" font-size="11" lengthAdjust="spacingAndGlyphs" textLength="81" x="504.5" y="413.4189">Integer productId</text><rect fill="none" height="6" style="stroke: #C82930; stroke-width: 1.0;" width="6" x="492.5" y="421.2539"/><text fill="#000000" font-family="sans-serif" font-size="11" lengthAdjust="spacingAndGlyphs" textLength="95" x="504.5" y="427.2549">String productName</text><rect fill="none" height="6" style="stroke: #C82930; stroke-width: 1.0;" width="6" x="492.5" y="435.0898"/><text fill="#000000" font-family="sans-serif" font-size="11" lengthAdjust="spacingAndGlyphs" textLength="122" x="504.5" y="441.0908">String productDescription</text><rect fill="none" height="6" style="stroke: #C82930; stroke-width: 1.0;" width="6" x="492.5" y="448.9258"/><text fill="#000000" font-family="sans-serif" font-size="11" lengthAdjust="spacingAndGlyphs" textLength="87" x="504.5" y="454.9268">Float productPrice</text><rect fill="none" height="6" style="stroke: #C82930; stroke-width: 1.0;" width="6" x="492.5" y="462.7617"/><text fill="#000000" font-family="sans-serif" font-size="11" lengthAdjust="spacingAndGlyphs" textLength="84" x="504.5" y="468.7627">Boolean changed</text><line style="stroke: #A80036; stroke-width: 1.5;" x1="485.5" x2="631.5" y1="475.1797" y2="475.1797"/><rect fill="#F24D5C" height="6" style="stroke: #C82930; stroke-width: 1.0;" width="6" x="492.5" y="484.5977"/><text fill="#000000" font-family="sans-serif" font-size="11" lengthAdjust="spacingAndGlyphs" textLength="45" x="504.5" y="490.5986">Product()</text><ellipse cx="495.5" cy="501.4336" fill="#84BE84" rx="3" ry="3" style="stroke: #038048; stroke-width: 1.0;"/><text fill="#000000" font-family="sans-serif" font-size="11" lengthAdjust="spacingAndGlyphs" textLength="68" x="504.5" y="504.4346">getProductId()</text><ellipse cx="495.5" cy="515.2695" fill="#84BE84" rx="3" ry="3" style="stroke: #038048; stroke-width: 1.0;"/><text fill="#000000" font-family="sans-serif" font-size="11" lengthAdjust="spacingAndGlyphs" textLength="87" x="504.5" y="518.2705">getProductName()</text><ellipse cx="495.5" cy="529.1055" fill="#84BE84" rx="3" ry="3" style="stroke: #038048; stroke-width: 1.0;"/><text fill="#000000" font-family="sans-serif" font-size="11" lengthAdjust="spacingAndGlyphs" textLength="84" x="504.5" y="532.1064">getProductPrice()</text><ellipse cx="495.5" cy="542.9414" fill="#84BE84" rx="3" ry="3" style="stroke: #038048; stroke-width: 1.0;"/><text fill="#000000" font-family="sans-serif" font-size="11" lengthAdjust="spacingAndGlyphs" textLength="87" x="504.5" y="545.9424">setProductName()</text><ellipse cx="495.5" cy="556.7773" fill="#84BE84" rx="3" ry="3" style="stroke: #038048; stroke-width: 1.0;"/><text fill="#000000" font-family="sans-serif" font-size="11" lengthAdjust="spacingAndGlyphs" textLength="84" x="504.5" y="559.7783">getProductPrice()</text><ellipse cx="495.5" cy="570.6133" fill="#84BE84" rx="3" ry="3" style="stroke: #038048; stroke-width: 1.0;"/><text fill="#000000" font-family="sans-serif" font-size="11" lengthAdjust="spacingAndGlyphs" textLength="74" x="504.5" y="573.6143">getProductPic()</text><ellipse cx="495.5" cy="584.4492" fill="#84BE84" rx="3" ry="3" style="stroke: #038048; stroke-width: 1.0;"/><text fill="#000000" font-family="sans-serif" font-size="11" lengthAdjust="spacingAndGlyphs" textLength="74" x="504.5" y="587.4502">setProductPic()</text><ellipse cx="495.5" cy="598.2852" fill="#84BE84" rx="3" ry="3" style="stroke: #038048; stroke-width: 1.0;"/><text fill="#000000" font-family="sans-serif" font-size="11" lengthAdjust="spacingAndGlyphs" textLength="69" x="504.5" y="601.2861">hasChanges()</text><ellipse cx="495.5" cy="612.1211" fill="#84BE84" rx="3" ry="3" style="stroke: #038048; stroke-width: 1.0;"/><text fill="#000000" font-family="sans-serif" font-size="11" lengthAdjust="spacingAndGlyphs" textLength="28" x="504.5" y="615.1221">load()</text><ellipse cx="495.5" cy="625.957" fill="#84BE84" rx="3" ry="3" style="stroke: #038048; stroke-width: 1.0;"/><text fill="#000000" font-family="sans-serif" font-size="11" lengthAdjust="spacingAndGlyphs" textLength="32" x="504.5" y="628.958">save()</text><ellipse cx="495.5" cy="639.793" fill="#84BE84" rx="3" ry="3" style="stroke: #038048; stroke-width: 1.0;"/><text fill="#000000" font-family="sans-serif" font-size="11" lengthAdjust="spacingAndGlyphs" textLength="37" x="504.5" y="642.7939">delete()</text><ellipse cx="495.5" cy="653.6289" fill="#84BE84" rx="3" ry="3" style="stroke: #038048; stroke-width: 1.0;"/><text fill="#000000" font-family="sans-serif" font-size="11" lengthAdjust="spacingAndGlyphs" textLength="104" x="504.5" y="656.6299">errorInProductName()</text><ellipse cx="495.5" cy="667.4648" fill="#84BE84" rx="3" ry="3" style="stroke: #038048; stroke-width: 1.0;"/><text fill="#000000" font-family="sans-serif" font-size="11" lengthAdjust="spacingAndGlyphs" textLength="107" x="504.5" y="670.4658">errorInProductPricde()</text><rect fill="#FEFECE" filter="url(#f1)" height="297.0469" style="stroke: #A80036; stroke-width: 1.5;" width="120" x="498.5" y="8"/><ellipse cx="531.05" cy="24" fill="#ADD1B2" rx="11" ry="11" style="stroke: #A80036; stroke-width: 1.0;"/><path d="M533.8156,19.875 Q533.9719,19.6563 534.1594,19.5469 Q534.3469,19.4375 534.5656,19.4375 Q534.9406,19.4375 535.175,19.6953 Q535.4094,19.9531 535.4094,20.5625 L535.4094,22.0156 Q535.4094,22.625 535.175,22.8906 Q534.9406,23.1563 534.5656,23.1563 Q534.2219,23.1563 534.0188,22.9531 Q533.8156,22.7656 533.7063,22.25 Q533.6594,21.8906 533.4719,21.7031 Q533.1438,21.3281 532.5344,21.1094 Q531.925,20.8906 531.3,20.8906 Q530.5344,20.8906 529.9016,21.2188 Q529.2688,21.5469 528.7766,22.2969 Q528.2844,23.0469 528.2844,24.0781 L528.2844,25.1719 Q528.2844,26.4063 529.175,27.2266 Q530.0656,28.0469 531.6594,28.0469 Q532.5969,28.0469 533.2531,27.7969 Q533.6438,27.6406 534.0656,27.2031 Q534.3313,26.9375 534.4797,26.8594 Q534.6281,26.7813 534.8313,26.7813 Q535.1594,26.7813 535.4172,27.0391 Q535.675,27.2969 535.675,27.6406 Q535.675,27.9844 535.3313,28.3906 Q534.8313,28.9688 534.0344,29.2969 Q532.9563,29.75 531.6594,29.75 Q530.1438,29.75 528.9406,29.125 Q527.9563,28.625 527.2688,27.5547 Q526.5813,26.4844 526.5813,25.2031 L526.5813,24.0469 Q526.5813,22.7188 527.1984,21.5703 Q527.8156,20.4219 528.9094,19.8047 Q530.0031,19.1875 531.2375,19.1875 Q531.9719,19.1875 532.6203,19.3516 Q533.2688,19.5156 533.8156,19.875 Z "/><text fill="#000000" font-family="sans-serif" font-size="12" lengthAdjust="spacingAndGlyphs" textLength="49" x="548.95" y="28.9102">Category</text><line style="stroke: #A80036; stroke-width: 1.5;" x1="499.5" x2="617.5" y1="40" y2="40"/><rect fill="none" height="6" style="stroke: #C82930; stroke-width: 1.0;" width="6" x="506.5" y="49.418"/><text fill="#000000" font-family="sans-serif" font-size="11" lengthAdjust="spacingAndGlyphs" textLength="44" x="518.5" y="55.4189">Integer id</text><rect fill="none" height="6" style="stroke: #C82930; stroke-width: 1.0;" width="6" x="506.5" y="63.2539"/><text fill="#000000" font-family="sans-serif" font-size="11" lengthAdjust="spacingAndGlyphs" textLength="57" x="518.5" y="69.2549">String name</text><rect fill="none" height="6" style="stroke: #C82930; stroke-width: 1.0;" width="6" x="506.5" y="77.0898"/><text fill="#000000" font-family="sans-serif" font-size="11" lengthAdjust="spacingAndGlyphs" textLength="84" x="518.5" y="83.0908">String description</text><rect fill="none" height="6" style="stroke: #C82930; stroke-width: 1.0;" width="6" x="506.5" y="90.9258"/><text fill="#000000" font-family="sans-serif" font-size="11" lengthAdjust="spacingAndGlyphs" textLength="73" x="518.5" y="96.9268">String changed</text><line style="stroke: #A80036; stroke-width: 1.5;" x1="499.5" x2="617.5" y1="103.3438" y2="103.3438"/><ellipse cx="509.5" cy="115.7617" fill="#84BE84" rx="3" ry="3" style="stroke: #038048; stroke-width: 1.0;"/><text fill="#000000" font-family="sans-serif" font-size="11" lengthAdjust="spacingAndGlyphs" textLength="52" x="518.5" y="118.7627">Category()</text><ellipse cx="509.5" cy="129.5977" fill="#84BE84" rx="3" ry="3" style="stroke: #038048; stroke-width: 1.0;"/><text fill="#000000" font-family="sans-serif" font-size="11" lengthAdjust="spacingAndGlyphs" textLength="21" x="518.5" y="132.5986">init()</text><ellipse cx="509.5" cy="143.4336" fill="#84BE84" rx="3" ry="3" style="stroke: #038048; stroke-width: 1.0;"/><text fill="#000000" font-family="sans-serif" font-size="11" lengthAdjust="spacingAndGlyphs" textLength="28" x="518.5" y="146.4346">load()</text><ellipse cx="509.5" cy="157.2695" fill="#84BE84" rx="3" ry="3" style="stroke: #038048; stroke-width: 1.0;"/><text fill="#000000" font-family="sans-serif" font-size="11" lengthAdjust="spacingAndGlyphs" textLength="32" x="518.5" y="160.2705">getID()</text><ellipse cx="509.5" cy="171.1055" fill="#84BE84" rx="3" ry="3" style="stroke: #038048; stroke-width: 1.0;"/><text fill="#000000" font-family="sans-serif" font-size="11" lengthAdjust="spacingAndGlyphs" textLength="50" x="518.5" y="174.1064">getName()</text><ellipse cx="509.5" cy="184.9414" fill="#84BE84" rx="3" ry="3" style="stroke: #038048; stroke-width: 1.0;"/><text fill="#000000" font-family="sans-serif" font-size="11" lengthAdjust="spacingAndGlyphs" textLength="77" x="518.5" y="187.9424">getDescription()</text><ellipse cx="509.5" cy="198.7773" fill="#84BE84" rx="3" ry="3" style="stroke: #038048; stroke-width: 1.0;"/><text fill="#000000" font-family="sans-serif" font-size="11" lengthAdjust="spacingAndGlyphs" textLength="63" x="518.5" y="201.7783">hasChange()</text><ellipse cx="509.5" cy="212.6133" fill="#84BE84" rx="3" ry="3" style="stroke: #038048; stroke-width: 1.0;"/><text fill="#000000" font-family="sans-serif" font-size="11" lengthAdjust="spacingAndGlyphs" textLength="50" x="518.5" y="215.6143">setName()</text><ellipse cx="509.5" cy="226.4492" fill="#84BE84" rx="3" ry="3" style="stroke: #038048; stroke-width: 1.0;"/><text fill="#000000" font-family="sans-serif" font-size="11" lengthAdjust="spacingAndGlyphs" textLength="77" x="518.5" y="229.4502">setDescription()</text><ellipse cx="509.5" cy="240.2852" fill="#84BE84" rx="3" ry="3" style="stroke: #038048; stroke-width: 1.0;"/><text fill="#000000" font-family="sans-serif" font-size="11" lengthAdjust="spacingAndGlyphs" textLength="32" x="518.5" y="243.2861">save()</text><ellipse cx="509.5" cy="254.1211" fill="#84BE84" rx="3" ry="3" style="stroke: #038048; stroke-width: 1.0;"/><text fill="#000000" font-family="sans-serif" font-size="11" lengthAdjust="spacingAndGlyphs" textLength="37" x="518.5" y="257.1221">delete()</text><ellipse cx="509.5" cy="267.957" fill="#84BE84" rx="3" ry="3" style="stroke: #038048; stroke-width: 1.0;"/><text fill="#000000" font-family="sans-serif" font-size="11" lengthAdjust="spacingAndGlyphs" textLength="67" x="518.5" y="270.958">errorInName()</text><ellipse cx="509.5" cy="281.793" fill="#84BE84" rx="3" ry="3" style="stroke: #038048; stroke-width: 1.0;"/><text fill="#000000" font-family="sans-serif" font-size="11" lengthAdjust="spacingAndGlyphs" textLength="94" x="518.5" y="284.7939">errorInDescription()</text><ellipse cx="509.5" cy="295.6289" fill="#84BE84" rx="3" ry="3" style="stroke: #038048; stroke-width: 1.0;"/><text fill="#000000" font-family="sans-serif" font-size="11" lengthAdjust="spacingAndGlyphs" textLength="62" x="518.5" y="298.6299">isExistingID()</text><rect fill="#FEFECE" filter="url(#f1)" height="283.2109" style="stroke: #A80036; stroke-width: 1.5;" width="145" x="225" y="15"/><ellipse cx="279.75" cy="31" fill="#ADD1B2" rx="11" ry="11" style="stroke: #A80036; stroke-width: 1.0;"/><path d="M282.5156,26.875 Q282.6719,26.6563 282.8594,26.5469 Q283.0469,26.4375 283.2656,26.4375 Q283.6406,26.4375 283.875,26.6953 Q284.1094,26.9531 284.1094,27.5625 L284.1094,29.0156 Q284.1094,29.625 283.875,29.8906 Q283.6406,30.1563 283.2656,30.1563 Q282.9219,30.1563 282.7188,29.9531 Q282.5156,29.7656 282.4063,29.25 Q282.3594,28.8906 282.1719,28.7031 Q281.8438,28.3281 281.2344,28.1094 Q280.625,27.8906 280,27.8906 Q279.2344,27.8906 278.6016,28.2188 Q277.9688,28.5469 277.4766,29.2969 Q276.9844,30.0469 276.9844,31.0781 L276.9844,32.1719 Q276.9844,33.4063 277.875,34.2266 Q278.7656,35.0469 280.3594,35.0469 Q281.2969,35.0469 281.9531,34.7969 Q282.3438,34.6406 282.7656,34.2031 Q283.0313,33.9375 283.1797,33.8594 Q283.3281,33.7813 283.5313,33.7813 Q283.8594,33.7813 284.1172,34.0391 Q284.375,34.2969 284.375,34.6406 Q284.375,34.9844 284.0313,35.3906 Q283.5313,35.9688 282.7344,36.2969 Q281.6563,36.75 280.3594,36.75 Q278.8438,36.75 277.6406,36.125 Q276.6563,35.625 275.9688,34.5547 Q275.2813,33.4844 275.2813,32.2031 L275.2813,31.0469 Q275.2813,29.7188 275.8984,28.5703 Q276.5156,27.4219 277.6094,26.8047 Q278.7031,26.1875 279.9375,26.1875 Q280.6719,26.1875 281.3203,26.3516 Q281.9688,26.5156 282.5156,26.875 Z "/><text fill="#000000" font-family="sans-serif" font-size="12" lengthAdjust="spacingAndGlyphs" textLength="27" x="300.25" y="35.9102">User</text><line style="stroke: #A80036; stroke-width: 1.5;" x1="226" x2="369" y1="47" y2="47"/><rect fill="none" height="6" style="stroke: #C82930; stroke-width: 1.0;" width="6" x="233" y="56.418"/><text fill="#000000" font-family="sans-serif" font-size="11" lengthAdjust="spacingAndGlyphs" textLength="43" x="245" y="62.4189">String db</text><rect fill="none" height="6" style="stroke: #C82930; stroke-width: 1.0;" width="6" x="233" y="70.2539"/><text fill="#000000" font-family="sans-serif" font-size="11" lengthAdjust="spacingAndGlyphs" textLength="69" x="245" y="76.2549">String session</text><rect fill="none" height="6" style="stroke: #C82930; stroke-width: 1.0;" width="6" x="233" y="84.0898"/><text fill="#000000" font-family="sans-serif" font-size="11" lengthAdjust="spacingAndGlyphs" textLength="67" x="245" y="90.0908">Integer userID</text><rect fill="none" height="6" style="stroke: #C82930; stroke-width: 1.0;" width="6" x="233" y="97.9258"/><text fill="#000000" font-family="sans-serif" font-size="11" lengthAdjust="spacingAndGlyphs" textLength="77" x="245" y="103.9268">String firstName</text><rect fill="none" height="6" style="stroke: #C82930; stroke-width: 1.0;" width="6" x="233" y="111.7617"/><text fill="#000000" font-family="sans-serif" font-size="11" lengthAdjust="spacingAndGlyphs" textLength="75" x="245" y="117.7627">String lastName</text><rect fill="none" height="6" style="stroke: #C82930; stroke-width: 1.0;" width="6" x="233" y="125.5977"/><text fill="#000000" font-family="sans-serif" font-size="11" lengthAdjust="spacingAndGlyphs" textLength="55" x="245" y="131.5986">String email</text><rect fill="none" height="6" style="stroke: #C82930; stroke-width: 1.0;" width="6" x="233" y="139.4336"/><text fill="#000000" font-family="sans-serif" font-size="11" lengthAdjust="spacingAndGlyphs" textLength="84" x="245" y="145.4346">Date dateCreated</text><rect fill="none" height="6" style="stroke: #C82930; stroke-width: 1.0;" width="6" x="233" y="153.2695"/><text fill="#000000" font-family="sans-serif" font-size="11" lengthAdjust="spacingAndGlyphs" textLength="68" x="245" y="159.2705">Date lastLogin</text><line style="stroke: #A80036; stroke-width: 1.5;" x1="226" x2="369" y1="165.6875" y2="165.6875"/><ellipse cx="236" cy="178.1055" fill="#84BE84" rx="3" ry="3" style="stroke: #038048; stroke-width: 1.0;"/><text fill="#000000" font-family="sans-serif" font-size="11" lengthAdjust="spacingAndGlyphs" textLength="55" x="245" y="181.1064">getUserID()</text><ellipse cx="236" cy="191.9414" fill="#84BE84" rx="3" ry="3" style="stroke: #038048; stroke-width: 1.0;"/><text fill="#000000" font-family="sans-serif" font-size="11" lengthAdjust="spacingAndGlyphs" textLength="50" x="245" y="194.9424">getName()</text><ellipse cx="236" cy="205.7773" fill="#84BE84" rx="3" ry="3" style="stroke: #038048; stroke-width: 1.0;"/><text fill="#000000" font-family="sans-serif" font-size="11" lengthAdjust="spacingAndGlyphs" textLength="47" x="245" y="208.7783">getEmail()</text><ellipse cx="236" cy="219.6133" fill="#84BE84" rx="3" ry="3" style="stroke: #038048; stroke-width: 1.0;"/><text fill="#000000" font-family="sans-serif" font-size="11" lengthAdjust="spacingAndGlyphs" textLength="83" x="245" y="222.6143">getDateCreated()</text><ellipse cx="236" cy="233.4492" fill="#84BE84" rx="3" ry="3" style="stroke: #038048; stroke-width: 1.0;"/><text fill="#000000" font-family="sans-serif" font-size="11" lengthAdjust="spacingAndGlyphs" textLength="70" x="245" y="236.4502">getLastLogin()</text><ellipse cx="236" cy="247.2852" fill="#84BE84" rx="3" ry="3" style="stroke: #038048; stroke-width: 1.0;"/><text fill="#000000" font-family="sans-serif" font-size="11" lengthAdjust="spacingAndGlyphs" textLength="66" x="245" y="250.2861">isValidLogin()</text><ellipse cx="236" cy="261.1211" fill="#84BE84" rx="3" ry="3" style="stroke: #038048; stroke-width: 1.0;"/><text fill="#000000" font-family="sans-serif" font-size="11" lengthAdjust="spacingAndGlyphs" textLength="30" x="245" y="264.1221">login()</text><ellipse cx="236" cy="274.957" fill="#84BE84" rx="3" ry="3" style="stroke: #038048; stroke-width: 1.0;"/><text fill="#000000" font-family="sans-serif" font-size="11" lengthAdjust="spacingAndGlyphs" textLength="37" x="245" y="277.958">logout()</text><ellipse cx="236" cy="288.793" fill="#84BE84" rx="3" ry="3" style="stroke: #038048; stroke-width: 1.0;"/><text fill="#000000" font-family="sans-serif" font-size="11" lengthAdjust="spacingAndGlyphs" textLength="119" x="245" y="291.7939">createPasswordCheck()</text><rect fill="#FEFECE" filter="url(#f1)" height="131.0156" style="stroke: #A80036; stroke-width: 1.5;" width="103" x="6" y="456"/><ellipse cx="28.2" cy="472" fill="#ADD1B2" rx="11" ry="11" style="stroke: #A80036; stroke-width: 1.0;"/><path d="M30.9656,467.875 Q31.1219,467.6563 31.3094,467.5469 Q31.4969,467.4375 31.7156,467.4375 Q32.0906,467.4375 32.325,467.6953 Q32.5594,467.9531 32.5594,468.5625 L32.5594,470.0156 Q32.5594,470.625 32.325,470.8906 Q32.0906,471.1563 31.7156,471.1563 Q31.3719,471.1563 31.1688,470.9531 Q30.9656,470.7656 30.8563,470.25 Q30.8094,469.8906 30.6219,469.7031 Q30.2938,469.3281 29.6844,469.1094 Q29.075,468.8906 28.45,468.8906 Q27.6844,468.8906 27.0516,469.2188 Q26.4188,469.5469 25.9266,470.2969 Q25.4344,471.0469 25.4344,472.0781 L25.4344,473.1719 Q25.4344,474.4063 26.325,475.2266 Q27.2156,476.0469 28.8094,476.0469 Q29.7469,476.0469 30.4031,475.7969 Q30.7938,475.6406 31.2156,475.2031 Q31.4813,474.9375 31.6297,474.8594 Q31.7781,474.7813 31.9813,474.7813 Q32.3094,474.7813 32.5672,475.0391 Q32.825,475.2969 32.825,475.6406 Q32.825,475.9844 32.4813,476.3906 Q31.9813,476.9688 31.1844,477.2969 Q30.1063,477.75 28.8094,477.75 Q27.2938,477.75 26.0906,477.125 Q25.1063,476.625 24.4188,475.5547 Q23.7313,474.4844 23.7313,473.2031 L23.7313,472.0469 Q23.7313,470.7188 24.3484,469.5703 Q24.9656,468.4219 26.0594,467.8047 Q27.1531,467.1875 28.3875,467.1875 Q29.1219,467.1875 29.7703,467.3516 Q30.4188,467.5156 30.9656,467.875 Z "/><text fill="#000000" font-family="sans-serif" font-size="12" lengthAdjust="spacingAndGlyphs" textLength="55" x="43.8" y="476.9102">Customer</text><line style="stroke: #A80036; stroke-width: 1.5;" x1="7" x2="108" y1="488" y2="488"/><rect fill="none" height="6" style="stroke: #C82930; stroke-width: 1.0;" width="6" x="14" y="497.418"/><text fill="#000000" font-family="sans-serif" font-size="11" lengthAdjust="spacingAndGlyphs" textLength="48" x="26" y="503.4189">String city</text><rect fill="none" height="6" style="stroke: #C82930; stroke-width: 1.0;" width="6" x="14" y="511.2539"/><text fill="#000000" font-family="sans-serif" font-size="11" lengthAdjust="spacingAndGlyphs" textLength="77" x="26" y="517.2549">String postCode</text><rect fill="none" height="6" style="stroke: #C82930; stroke-width: 1.0;" width="6" x="14" y="525.0898"/><text fill="#000000" font-family="sans-serif" font-size="11" lengthAdjust="spacingAndGlyphs" textLength="73" x="26" y="531.0908">String changed</text><rect fill="none" height="6" style="stroke: #C82930; stroke-width: 1.0;" width="6" x="14" y="538.9258"/><text fill="#000000" font-family="sans-serif" font-size="11" lengthAdjust="spacingAndGlyphs" textLength="71" x="26" y="544.9268">String address</text><line style="stroke: #A80036; stroke-width: 1.5;" x1="7" x2="108" y1="551.3438" y2="551.3438"/><ellipse cx="17" cy="563.7617" fill="#84BE84" rx="3" ry="3" style="stroke: #038048; stroke-width: 1.0;"/><text fill="#000000" font-family="sans-serif" font-size="11" lengthAdjust="spacingAndGlyphs" textLength="66" x="26" y="566.7627">editAccount()</text><ellipse cx="17" cy="577.5977" fill="#84BE84" rx="3" ry="3" style="stroke: #038048; stroke-width: 1.0;"/><text fill="#000000" font-family="sans-serif" font-size="11" lengthAdjust="spacingAndGlyphs" textLength="65" x="26" y="580.5986">getAddress()</text><rect fill="#FEFECE" filter="url(#f1)" height="144.8516" style="stroke: #A80036; stroke-width: 1.5;" width="114" x="335.5" y="449"/><ellipse cx="354.55" cy="465" fill="#ADD1B2" rx="11" ry="11" style="stroke: #A80036; stroke-width: 1.0;"/><path d="M357.3156,460.875 Q357.4719,460.6563 357.6594,460.5469 Q357.8469,460.4375 358.0656,460.4375 Q358.4406,460.4375 358.675,460.6953 Q358.9094,460.9531 358.9094,461.5625 L358.9094,463.0156 Q358.9094,463.625 358.675,463.8906 Q358.4406,464.1563 358.0656,464.1563 Q357.7219,464.1563 357.5188,463.9531 Q357.3156,463.7656 357.2063,463.25 Q357.1594,462.8906 356.9719,462.7031 Q356.6438,462.3281 356.0344,462.1094 Q355.425,461.8906 354.8,461.8906 Q354.0344,461.8906 353.4016,462.2188 Q352.7688,462.5469 352.2766,463.2969 Q351.7844,464.0469 351.7844,465.0781 L351.7844,466.1719 Q351.7844,467.4063 352.675,468.2266 Q353.5656,469.0469 355.1594,469.0469 Q356.0969,469.0469 356.7531,468.7969 Q357.1438,468.6406 357.5656,468.2031 Q357.8313,467.9375 357.9797,467.8594 Q358.1281,467.7813 358.3313,467.7813 Q358.6594,467.7813 358.9172,468.0391 Q359.175,468.2969 359.175,468.6406 Q359.175,468.9844 358.8313,469.3906 Q358.3313,469.9688 357.5344,470.2969 Q356.4563,470.75 355.1594,470.75 Q353.6438,470.75 352.4406,470.125 Q351.4563,469.625 350.7688,468.5547 Q350.0813,467.4844 350.0813,466.2031 L350.0813,465.0469 Q350.0813,463.7188 350.6984,462.5703 Q351.3156,461.4219 352.4094,460.8047 Q353.5031,460.1875 354.7375,460.1875 Q355.4719,460.1875 356.1203,460.3516 Q356.7688,460.5156 357.3156,460.875 Z "/><text fill="#000000" font-family="sans-serif" font-size="12" lengthAdjust="spacingAndGlyphs" textLength="73" x="369.45" y="469.9102">Administrator</text><line style="stroke: #A80036; stroke-width: 1.5;" x1="336.5" x2="448.5" y1="481" y2="481"/><rect fill="none" height="6" style="stroke: #C82930; stroke-width: 1.0;" width="6" x="343.5" y="490.418"/><text fill="#000000" font-family="sans-serif" font-size="11" lengthAdjust="spacingAndGlyphs" textLength="88" x="355.5" y="496.4189">Boolean isMember</text><line style="stroke: #A80036; stroke-width: 1.5;" x1="336.5" x2="448.5" y1="502.8359" y2="502.8359"/><ellipse cx="346.5" cy="515.2539" fill="#84BE84" rx="3" ry="3" style="stroke: #038048; stroke-width: 1.0;"/><text fill="#000000" font-family="sans-serif" font-size="11" lengthAdjust="spacingAndGlyphs" textLength="80" x="355.5" y="518.2549">createAccount()</text><ellipse cx="346.5" cy="529.0898" fill="#84BE84" rx="3" ry="3" style="stroke: #038048; stroke-width: 1.0;"/><text fill="#000000" font-family="sans-serif" font-size="11" lengthAdjust="spacingAndGlyphs" textLength="66" x="355.5" y="532.0908">editAccount()</text><ellipse cx="346.5" cy="542.9258" fill="#84BE84" rx="3" ry="3" style="stroke: #038048; stroke-width: 1.0;"/><text fill="#000000" font-family="sans-serif" font-size="11" lengthAdjust="spacingAndGlyphs" textLength="83" x="355.5" y="545.9268">createCategory()</text><ellipse cx="346.5" cy="556.7617" fill="#84BE84" rx="3" ry="3" style="stroke: #038048; stroke-width: 1.0;"/><text fill="#000000" font-family="sans-serif" font-size="11" lengthAdjust="spacingAndGlyphs" textLength="69" x="355.5" y="559.7627">editCategory()</text><ellipse cx="346.5" cy="570.5977" fill="#84BE84" rx="3" ry="3" style="stroke: #038048; stroke-width: 1.0;"/><text fill="#000000" font-family="sans-serif" font-size="11" lengthAdjust="spacingAndGlyphs" textLength="76" x="355.5" y="573.5986">createProduct()</text><ellipse cx="346.5" cy="584.4336" fill="#84BE84" rx="3" ry="3" style="stroke: #038048; stroke-width: 1.0;"/><text fill="#000000" font-family="sans-serif" font-size="11" lengthAdjust="spacingAndGlyphs" textLength="62" x="355.5" y="587.4346">editProduct()</text><rect fill="#FEFECE" filter="url(#f1)" height="131.0156" style="stroke: #A80036; stroke-width: 1.5;" width="122" x="178.5" y="456"/><ellipse cx="220.05" cy="472" fill="#ADD1B2" rx="11" ry="11" style="stroke: #A80036; stroke-width: 1.0;"/><path d="M222.8156,467.875 Q222.9719,467.6563 223.1594,467.5469 Q223.3469,467.4375 223.5656,467.4375 Q223.9406,467.4375 224.175,467.6953 Q224.4094,467.9531 224.4094,468.5625 L224.4094,470.0156 Q224.4094,470.625 224.175,470.8906 Q223.9406,471.1563 223.5656,471.1563 Q223.2219,471.1563 223.0188,470.9531 Q222.8156,470.7656 222.7063,470.25 Q222.6594,469.8906 222.4719,469.7031 Q222.1438,469.3281 221.5344,469.1094 Q220.925,468.8906 220.3,468.8906 Q219.5344,468.8906 218.9016,469.2188 Q218.2688,469.5469 217.7766,470.2969 Q217.2844,471.0469 217.2844,472.0781 L217.2844,473.1719 Q217.2844,474.4063 218.175,475.2266 Q219.0656,476.0469 220.6594,476.0469 Q221.5969,476.0469 222.2531,475.7969 Q222.6438,475.6406 223.0656,475.2031 Q223.3313,474.9375 223.4797,474.8594 Q223.6281,474.7813 223.8313,474.7813 Q224.1594,474.7813 224.4172,475.0391 Q224.675,475.2969 224.675,475.6406 Q224.675,475.9844 224.3313,476.3906 Q223.8313,476.9688 223.0344,477.2969 Q221.9563,477.75 220.6594,477.75 Q219.1438,477.75 217.9406,477.125 Q216.9563,476.625 216.2688,475.5547 Q215.5813,474.4844 215.5813,473.2031 L215.5813,472.0469 Q215.5813,470.7188 216.1984,469.5703 Q216.8156,468.4219 217.9094,467.8047 Q219.0031,467.1875 220.2375,467.1875 Q220.9719,467.1875 221.6203,467.3516 Q222.2688,467.5156 222.8156,467.875 Z "/><text fill="#000000" font-family="sans-serif" font-size="12" lengthAdjust="spacingAndGlyphs" textLength="31" x="239.95" y="476.9102">Order</text><line style="stroke: #A80036; stroke-width: 1.5;" x1="179.5" x2="299.5" y1="488" y2="488"/><rect fill="none" height="6" style="stroke: #C82930; stroke-width: 1.0;" width="6" x="186.5" y="497.418"/><text fill="#000000" font-family="sans-serif" font-size="11" lengthAdjust="spacingAndGlyphs" textLength="71" x="198.5" y="503.4189">Integer orderID</text><rect fill="none" height="6" style="stroke: #C82930; stroke-width: 1.0;" width="6" x="186.5" y="511.2539"/><text fill="#000000" font-family="sans-serif" font-size="11" lengthAdjust="spacingAndGlyphs" textLength="96" x="198.5" y="517.2549">Deciamal orderPrice</text><rect fill="none" height="6" style="stroke: #C82930; stroke-width: 1.0;" width="6" x="186.5" y="525.0898"/><text fill="#000000" font-family="sans-serif" font-size="11" lengthAdjust="spacingAndGlyphs" textLength="69" x="198.5" y="531.0908">Date ordeDate</text><rect fill="none" height="6" style="stroke: #C82930; stroke-width: 1.0;" width="6" x="186.5" y="538.9258"/><text fill="#000000" font-family="sans-serif" font-size="11" lengthAdjust="spacingAndGlyphs" textLength="90" x="198.5" y="544.9268">Integer customerID</text><line style="stroke: #A80036; stroke-width: 1.5;" x1="179.5" x2="299.5" y1="551.3438" y2="551.3438"/><ellipse cx="189.5" cy="563.7617" fill="#84BE84" rx="3" ry="3" style="stroke: #038048; stroke-width: 1.0;"/><text fill="#000000" font-family="sans-serif" font-size="11" lengthAdjust="spacingAndGlyphs" textLength="67" x="198.5" y="566.7627">createOrder()</text><ellipse cx="189.5" cy="577.5977" fill="#84BE84" rx="3" ry="3" style="stroke: #038048; stroke-width: 1.0;"/><text fill="#000000" font-family="sans-serif" font-size="11" lengthAdjust="spacingAndGlyphs" textLength="70" x="198.5" y="580.5986">UpdateOrder()</text><rect fill="#FEFECE" filter="url(#f1)" height="117.1797" style="stroke: #A80036; stroke-width: 1.5;" width="129" x="702" y="463"/><ellipse cx="727.8" cy="479" fill="#ADD1B2" rx="11" ry="11" style="stroke: #A80036; stroke-width: 1.0;"/><path d="M730.5656,474.875 Q730.7219,474.6563 730.9094,474.5469 Q731.0969,474.4375 731.3156,474.4375 Q731.6906,474.4375 731.925,474.6953 Q732.1594,474.9531 732.1594,475.5625 L732.1594,477.0156 Q732.1594,477.625 731.925,477.8906 Q731.6906,478.1563 731.3156,478.1563 Q730.9719,478.1563 730.7688,477.9531 Q730.5656,477.7656 730.4563,477.25 Q730.4094,476.8906 730.2219,476.7031 Q729.8938,476.3281 729.2844,476.1094 Q728.675,475.8906 728.05,475.8906 Q727.2844,475.8906 726.6516,476.2188 Q726.0188,476.5469 725.5266,477.2969 Q725.0344,478.0469 725.0344,479.0781 L725.0344,480.1719 Q725.0344,481.4063 725.925,482.2266 Q726.8156,483.0469 728.4094,483.0469 Q729.3469,483.0469 730.0031,482.7969 Q730.3938,482.6406 730.8156,482.2031 Q731.0813,481.9375 731.2297,481.8594 Q731.3781,481.7813 731.5813,481.7813 Q731.9094,481.7813 732.1672,482.0391 Q732.425,482.2969 732.425,482.6406 Q732.425,482.9844 732.0813,483.3906 Q731.5813,483.9688 730.7844,484.2969 Q729.7063,484.75 728.4094,484.75 Q726.8938,484.75 725.6906,484.125 Q724.7063,483.625 724.0188,482.5547 Q723.3313,481.4844 723.3313,480.2031 L723.3313,479.0469 Q723.3313,477.7188 723.9484,476.5703 Q724.5656,475.4219 725.6594,474.8047 Q726.7531,474.1875 727.9875,474.1875 Q728.7219,474.1875 729.3703,474.3516 Q730.0188,474.5156 730.5656,474.875 Z "/><text fill="#000000" font-family="sans-serif" font-size="12" lengthAdjust="spacingAndGlyphs" textLength="73" x="744.2" y="483.9102">OrderProduct</text><line style="stroke: #A80036; stroke-width: 1.5;" x1="703" x2="830" y1="495" y2="495"/><rect fill="none" height="6" style="stroke: #C82930; stroke-width: 1.0;" width="6" x="710" y="504.418"/><text fill="#000000" font-family="sans-serif" font-size="11" lengthAdjust="spacingAndGlyphs" textLength="73" x="722" y="510.4189">Integer OrderID</text><rect fill="none" height="6" style="stroke: #C82930; stroke-width: 1.0;" width="6" x="710" y="518.2539"/><text fill="#000000" font-family="sans-serif" font-size="11" lengthAdjust="spacingAndGlyphs" textLength="82" x="722" y="524.2549">Integer productID</text><rect fill="none" height="6" style="stroke: #C82930; stroke-width: 1.0;" width="6" x="710" y="532.0898"/><text fill="#000000" font-family="sans-serif" font-size="11" lengthAdjust="spacingAndGlyphs" textLength="74" x="722" y="538.0908">Integer quantity</text><rect fill="none" height="6" style="stroke: #C82930; stroke-width: 1.0;" width="6" x="710" y="545.9258"/><text fill="#000000" font-family="sans-serif" font-size="11" lengthAdjust="spacingAndGlyphs" textLength="90" x="722" y="551.9268">Decimal orderPrice</text><line style="stroke: #A80036; stroke-width: 1.5;" x1="703" x2="830" y1="558.3438" y2="558.3438"/><ellipse cx="713" cy="570.7617" fill="#84BE84" rx="3" ry="3" style="stroke: #038048; stroke-width: 1.0;"/><text fill="#000000" font-family="sans-serif" font-size="11" lengthAdjust="spacingAndGlyphs" textLength="103" x="722" y="573.7627">addProductToOrder()</text><path d="M339.394,317.579 C351.376,363.363 363.84,410.99 373.68,448.589 " fill="none" style="stroke: #A80036; stroke-width: 1.0;"/><polygon fill="none" points="332.589,319.226,334.297,298.105,346.133,315.681,332.589,319.226" style="stroke: #A80036; stroke-width: 1.0;"/><path d="M213.678,284.28 C175.393,342.187 131.687,408.292 100.2656,455.817 " fill="none" style="stroke: #A80036; stroke-width: 1.0;"/><polygon fill="none" points="207.971,280.22,224.841,267.397,219.65,287.941,207.971,280.22" style="stroke: #A80036; stroke-width: 1.0;"/><path d="M558.5,325.478 C558.5,338.951 558.5,352.524 558.5,365.897 " fill="none" style="stroke: #A80036; stroke-width: 1.0;"/><polygon fill="none" points="551.5,325.146,558.5,305.146,565.5,325.146,551.5,325.146" style="stroke: #A80036; stroke-width: 1.0;"/><path d="M109.167,521.5 C130.711,521.5 155.897,521.5 178.355,521.5 " fill="none" style="stroke: #A80036; stroke-width: 1.0;"/><text fill="#000000" font-family="sans-serif" font-size="13" lengthAdjust="spacingAndGlyphs" textLength="21" x="133.25" y="514.9951">has</text><path d="M632.844,521.5 C655.816,521.5 678.788,521.5 701.76,521.5 " fill="none" style="stroke: #A80036; stroke-width: 1.0;"/><path d="M253.892,455.841 C267.111,413.071 291.495,360.696 335,335.5 C392.306,302.312 574.083,305.265 633,335.5 C684.631,361.996 720.792,418.767 742.335,462.664 " fill="none" style="stroke: #A80036; stroke-width: 1.0;"/></g></svg>